<?xml version="1.0" encoding="utf-8" standalone="no"?>
<!DOCTYPE svg PUBLIC "-//W3C//DTD SVG 1.1//EN"
  "http://www.w3.org/Graphics/SVG/1.1/DTD/svg11.dtd">
<!-- Created with matplotlib (https://matplotlib.org/) -->
<svg height="198.425197pt" version="1.1" viewBox="0 0 311.811024 198.425197" width="311.811024pt" xmlns="http://www.w3.org/2000/svg" xmlns:xlink="http://www.w3.org/1999/xlink">
 <defs>
  <style type="text/css">
*{stroke-linecap:butt;stroke-linejoin:round;}
  </style>
 </defs>
 <g id="figure_1">
  <g id="patch_1">
   <path d="M 0 198.425197 
L 311.811024 198.425197 
L 311.811024 0 
L 0 0 
z
" style="fill:#ffffff;"/>
  </g>
  <g id="axes_1">
   <g id="patch_2">
    <path d="M 24.19 170.545197 
L 301.011024 170.545197 
L 301.011024 25.44 
L 24.19 25.44 
z
" style="fill:#ffffff;"/>
   </g>
   <g id="matplotlib.axis_1">
    <g id="xtick_1">
     <g id="line2d_1">
      <defs>
       <path d="M 0 0 
L 0 3.5 
" id="m6082fbad9c" style="stroke:#000000;stroke-width:0.8;"/>
      </defs>
      <g>
       <use style="stroke:#000000;stroke-width:0.8;" x="24.19" xlink:href="#m6082fbad9c" y="170.545197"/>
      </g>
     </g>
     <g id="text_1">
      <text style="font-family:DejaVu Sans;font-size:10px;font-style:normal;font-weight:normal;text-anchor:start;" transform="rotate(-0, 24.19, 185.143634)" x="24.19" y="185.143634">-10.0</text>
     </g>
    </g>
    <g id="xtick_2">
     <g id="line2d_2">
      <g>
       <use style="stroke:#000000;stroke-width:0.8;" x="156.072336" xlink:href="#m6082fbad9c" y="170.545197"/>
      </g>
     </g>
     <g id="text_2">
      <text style="font-family:DejaVu Sans;font-size:10px;font-style:normal;font-weight:normal;text-anchor:middle;" transform="rotate(-0, 156.072336, 185.143634)" x="156.072336" y="185.143634">TSS</text>
     </g>
    </g>
    <g id="xtick_3">
     <g id="line2d_3">
      <g>
       <use style="stroke:#000000;stroke-width:0.8;" x="169.128687" xlink:href="#m6082fbad9c" y="170.545197"/>
      </g>
     </g>
     <g id="text_3">
      <text style="font-family:DejaVu Sans;font-size:10px;font-style:normal;font-weight:normal;text-anchor:middle;" transform="rotate(-0, 169.128687, 185.143634)" x="169.128687" y="185.143634">TES</text>
     </g>
    </g>
    <g id="xtick_4">
     <g id="line2d_4">
      <g>
       <use style="stroke:#000000;stroke-width:0.8;" x="301.011024" xlink:href="#m6082fbad9c" y="170.545197"/>
      </g>
     </g>
     <g id="text_4">
      <text style="font-family:DejaVu Sans;font-size:10px;font-style:normal;font-weight:normal;text-anchor:end;" transform="rotate(-0, 301.011024, 185.143634)" x="301.011024" y="185.143634">10.0Kb</text>
     </g>
    </g>
   </g>
   <g id="matplotlib.axis_2">
    <g id="ytick_1">
     <g id="line2d_5">
      <defs>
       <path d="M 0 0 
L -3.5 0 
" id="m7c7d71d83a" style="stroke:#000000;stroke-width:0.8;"/>
      </defs>
      <g>
       <use style="stroke:#000000;stroke-width:0.8;" x="24.19" xlink:href="#m7c7d71d83a" y="170.106887"/>
      </g>
     </g>
     <g id="text_5">
      <text style="font-family:DejaVu Sans;font-size:10px;font-style:normal;font-weight:normal;text-anchor:end;" transform="rotate(-0, 17.19, 173.906106)" x="17.19" y="173.906106">0</text>
     </g>
    </g>
    <g id="ytick_2">
     <g id="line2d_6">
      <g>
       <use style="stroke:#000000;stroke-width:0.8;" x="24.19" xlink:href="#m7c7d71d83a" y="138.28222"/>
      </g>
     </g>
     <g id="text_6">
      <text style="font-family:DejaVu Sans;font-size:10px;font-style:normal;font-weight:normal;text-anchor:end;" transform="rotate(-0, 17.19, 142.081439)" x="17.19" y="142.081439">2</text>
     </g>
    </g>
    <g id="ytick_3">
     <g id="line2d_7">
      <g>
       <use style="stroke:#000000;stroke-width:0.8;" x="24.19" xlink:href="#m7c7d71d83a" y="106.457552"/>
      </g>
     </g>
     <g id="text_7">
      <text style="font-family:DejaVu Sans;font-size:10px;font-style:normal;font-weight:normal;text-anchor:end;" transform="rotate(-0, 17.19, 110.256771)" x="17.19" y="110.256771">4</text>
     </g>
    </g>
    <g id="ytick_4">
     <g id="line2d_8">
      <g>
       <use style="stroke:#000000;stroke-width:0.8;" x="24.19" xlink:href="#m7c7d71d83a" y="74.632885"/>
      </g>
     </g>
     <g id="text_8">
      <text style="font-family:DejaVu Sans;font-size:10px;font-style:normal;font-weight:normal;text-anchor:end;" transform="rotate(-0, 17.19, 78.432104)" x="17.19" y="78.432104">6</text>
     </g>
    </g>
    <g id="ytick_5">
     <g id="line2d_9">
      <g>
       <use style="stroke:#000000;stroke-width:0.8;" x="24.19" xlink:href="#m7c7d71d83a" y="42.808218"/>
      </g>
     </g>
     <g id="text_9">
      <text style="font-family:DejaVu Sans;font-size:10px;font-style:normal;font-weight:normal;text-anchor:end;" transform="rotate(-0, 17.19, 46.607436)" x="17.19" y="46.607436">8</text>
     </g>
    </g>
   </g>
   <g id="line2d_10">
    <path clip-path="url(#p260e2d82f3)" d="M 24.19 142.571632 
L 24.453765 145.408178 
L 24.981294 143.816945 
L 25.113176 144.577969 
L 25.245059 144.508785 
L 25.376941 144.577969 
L 25.640706 148.383093 
L 25.772588 147.345332 
L 25.90447 147.276148 
L 26.036353 147.622068 
L 26.168235 147.4837 
L 26.300117 146.100019 
L 26.695764 147.13778 
L 27.091411 141.18795 
L 27.223294 140.84203 
L 27.355176 140.84203 
L 27.882705 147.967988 
L 28.14647 142.917552 
L 28.542117 148.936565 
L 28.937764 146.238387 
L 29.201529 140.357742 
L 29.333411 140.15019 
L 29.597176 143.747761 
L 29.729058 143.194288 
L 29.992823 141.118766 
L 30.124705 142.018159 
L 30.38847 139.942637 
L 30.520352 143.05592 
L 30.652234 142.156527 
L 30.915999 137.590379 
L 31.047881 137.867116 
L 31.311646 140.288558 
L 31.443528 139.319981 
L 31.575411 139.319981 
L 31.707293 140.980398 
L 31.971058 137.728747 
L 32.10294 137.590379 
L 32.234823 138.351404 
L 32.894234 133.1626 
L 33.026117 134.615465 
L 33.157999 133.50852 
L 33.421764 138.558956 
L 33.553646 138.904876 
L 33.817411 142.018159 
L 33.949293 141.257135 
L 34.081175 141.257135 
L 34.213058 141.533871 
L 34.34494 142.433264 
L 34.608705 141.533871 
L 34.872469 135.099753 
L 35.004352 134.615465 
L 35.136234 135.168937 
L 35.268116 135.030569 
L 35.531881 136.690987 
L 35.663763 137.382827 
L 35.795646 138.697324 
L 35.927528 138.143852 
L 36.05941 138.28222 
L 36.323175 142.779184 
L 36.58694 140.980398 
L 36.718822 140.49611 
L 36.850704 140.565294 
L 36.982587 141.741423 
L 37.246351 138.351404 
L 37.641998 141.672239 
L 37.773881 140.634478 
L 37.905763 141.464687 
L 38.037645 141.326319 
L 38.169528 143.540208 
L 38.30141 143.263472 
L 38.565175 142.087343 
L 38.697057 142.848368 
L 38.828939 142.779184 
L 39.092704 139.250797 
L 39.224586 141.18795 
L 39.620233 141.741423 
L 39.752116 141.603055 
L 39.883998 142.294895 
L 40.147763 139.665901 
L 40.411527 140.219374 
L 40.675292 142.364079 
L 40.807174 143.471024 
L 40.939057 143.332656 
L 41.070939 142.502448 
L 41.202821 142.986736 
L 41.466586 146.307571 
L 41.730351 145.26981 
L 41.862233 147.691252 
L 42.125998 146.999411 
L 42.389762 142.848368 
L 42.653527 138.420588 
L 42.917292 136.898539 
L 43.049174 137.797932 
L 43.312939 137.175275 
L 43.576703 133.785256 
L 43.708586 134.269544 
L 43.840468 134.131176 
L 43.97235 134.823017 
L 44.104233 136.137514 
L 44.236115 136.137514 
L 44.49988 138.420588 
L 44.631762 138.28222 
L 44.763644 137.867116 
L 45.291174 144.716337 
L 45.423056 144.162865 
L 45.554938 144.508785 
L 45.818703 147.068596 
L 45.950585 147.967988 
L 46.21435 143.886129 
L 46.346232 143.955313 
L 46.609997 146.169203 
L 46.741879 146.791859 
L 46.873762 149.628406 
L 47.269409 141.049582 
L 47.401291 140.980398 
L 47.665056 147.276148 
L 47.796938 146.999411 
L 47.928821 145.477362 
L 48.060703 142.502448 
L 48.192585 142.571632 
L 48.588232 139.942637 
L 48.720115 136.898539 
L 49.247644 116.281689 
L 49.511409 111.0237 
L 49.775173 99.331594 
L 50.038938 95.734023 
L 50.17082 95.734023 
L 50.434585 99.746699 
L 50.962114 91.029507 
L 51.225879 95.249735 
L 51.489644 100.161803 
L 51.621526 99.193226 
L 51.753408 99.608331 
L 51.885291 99.124042 
L 52.41282 101.960589 
L 52.544702 103.621006 
L 52.676585 102.444877 
L 52.808467 99.746699 
L 52.940349 100.300171 
L 53.072232 101.337932 
L 53.204114 103.69019 
L 53.335996 103.413454 
L 53.467879 102.375693 
L 53.599761 104.727951 
L 53.731643 109.570835 
L 53.863526 109.363283 
L 54.12729 106.388368 
L 54.391055 111.092884 
L 54.65482 111.853909 
L 54.786702 113.23759 
L 54.918584 115.935769 
L 55.050467 115.036376 
L 55.314231 109.778387 
L 55.446114 108.11797 
L 55.577996 109.570835 
L 55.709878 109.640019 
L 55.841761 107.633681 
L 55.973643 103.067534 
L 56.36929 106.457552 
L 56.501172 105.143055 
L 56.633055 107.702866 
L 56.896819 118.218843 
L 57.160584 113.652695 
L 57.292466 115.313112 
L 57.424349 118.910683 
L 57.556231 118.149659 
L 57.688113 118.495579 
L 57.819996 115.243928 
L 58.08376 113.998615 
L 58.347525 111.992277 
L 58.61129 105.488976 
L 58.743172 104.797135 
L 58.875054 101.268748 
L 59.006937 101.337932 
L 59.270701 100.646091 
L 59.402584 103.482638 
L 59.534466 102.998349 
L 59.666348 101.753036 
L 60.061995 110.746964 
L 60.193878 111.923093 
L 60.32576 110.746964 
L 60.457642 112.061461 
L 60.589525 109.363283 
L 60.721407 108.948179 
L 60.853289 106.388368 
L 60.985172 106.180816 
L 61.248936 104.243663 
L 61.380819 104.727951 
L 61.512701 103.621006 
L 61.644583 103.897742 
L 61.776466 105.696528 
L 61.908348 104.243663 
L 62.172113 109.086547 
L 62.303995 107.979602 
L 62.435877 107.979602 
L 62.56776 109.086547 
L 62.699642 111.577173 
L 62.831524 110.816148 
L 62.963407 112.684118 
L 63.095289 111.507989 
L 63.359054 117.734554 
L 63.490936 114.690456 
L 63.886583 122.854175 
L 64.018466 121.678046 
L 64.150348 121.885598 
L 64.414113 121.193757 
L 64.545995 121.262941 
L 64.80976 116.143321 
L 64.941642 116.143321 
L 65.073524 116.558425 
L 65.205407 116.212505 
L 65.337289 118.149659 
L 65.732936 128.873188 
L 66.128583 132.539943 
L 66.260465 136.345066 
L 66.392348 134.407913 
L 66.787995 121.401309 
L 66.919877 122.646622 
L 67.051759 121.332125 
L 67.711171 100.023435 
L 67.843053 101.891405 
L 67.974936 99.331594 
L 68.2387 104.243663 
L 68.502465 96.840968 
L 68.634347 97.601993 
L 69.161877 109.224915 
L 69.293759 108.602258 
L 69.425641 111.162069 
L 69.557524 109.501651 
L 69.821288 112.061461 
L 69.953171 111.923093 
L 70.216935 105.488976 
L 70.4807 106.319184 
L 70.612582 106.388368 
L 70.744465 106.111632 
L 71.403876 120.778653 
L 71.799523 139.250797 
L 71.931406 139.596717 
L 72.063288 138.558956 
L 72.327053 141.257135 
L 72.590817 137.797932 
L 72.7227 136.967723 
L 72.986464 131.225446 
L 73.250229 121.954782 
L 73.645876 116.350873 
L 73.777758 116.420057 
L 73.909641 118.218843 
L 74.173405 115.659032 
L 74.305288 115.728216 
L 74.43717 114.482903 
L 74.569052 115.935769 
L 74.832817 111.923093 
L 74.964699 113.721879 
L 75.755993 98.708938 
L 76.019758 103.759374 
L 76.283523 106.25 
L 76.415405 106.111632 
L 76.547287 103.205902 
L 76.67917 102.998349 
L 76.811052 104.312847 
L 76.942934 102.721613 
L 77.074817 99.26241 
L 77.206699 99.539147 
L 77.602346 93.658501 
L 77.866111 92.27482 
L 77.997993 93.312581 
L 78.129875 91.237059 
L 78.39364 96.425864 
L 78.525523 104.03611 
L 78.789287 99.400778 
L 78.92117 101.268748 
L 79.053052 100.922828 
L 79.184934 101.061196 
L 79.316817 102.652429 
L 79.580581 108.878995 
L 79.712464 108.256338 
L 79.976228 101.13038 
L 80.108111 106.941841 
L 80.239993 106.665105 
L 80.503758 102.859981 
L 80.63564 105.488976 
L 81.031287 101.545484 
L 81.163169 102.583245 
L 81.558816 109.432467 
L 81.690699 109.501651 
L 81.822581 110.816148 
L 81.954463 110.539412 
L 82.35011 104.658767 
L 82.481993 105.212239 
L 82.613875 108.671442 
L 82.87764 104.174479 
L 83.009522 100.576907 
L 83.141404 100.646091 
L 83.405169 96.425864 
L 83.537051 97.186888 
L 83.800816 103.69019 
L 84.064581 99.400778 
L 84.196463 102.168141 
L 84.460228 100.438539 
L 84.59211 100.507723 
L 84.987757 106.526737 
L 85.119639 103.275086 
L 85.383404 103.482638 
L 85.515286 103.413454 
L 85.647169 102.583245 
L 85.779051 103.413454 
L 86.042816 102.444877 
L 86.30658 95.595655 
L 86.570345 98.086281 
L 86.83411 91.098691 
L 87.625404 79.475769 
L 87.757286 80.236794 
L 88.021051 73.110836 
L 88.152933 73.18002 
L 88.284815 73.87186 
L 88.416698 73.52594 
L 88.54858 76.016566 
L 88.680462 75.947382 
L 88.944227 74.079413 
L 89.076109 74.356149 
L 89.207992 70.758578 
L 89.339874 73.041652 
L 89.471756 72.972468 
L 89.603639 75.324726 
L 89.735521 73.52594 
L 89.867403 77.261879 
L 90.131168 72.626547 
L 90.658697 79.475769 
L 91.054344 74.010228 
L 91.318109 76.224118 
L 91.449991 76.500855 
L 91.845638 83.626813 
L 91.977521 86.878464 
L 92.109403 85.28723 
L 92.50505 95.526471 
L 92.636932 95.803207 
L 92.768815 98.432202 
L 93.032579 105.696528 
L 93.164462 104.658767 
L 93.296344 106.111632 
L 93.823873 119.740892 
L 94.087638 121.262941 
L 94.219521 121.124573 
L 94.351403 119.948444 
L 94.74705 125.552353 
L 94.878932 124.30704 
L 95.010815 124.514592 
L 95.142697 123.269279 
L 95.274579 120.22518 
L 95.406462 120.640285 
L 95.538344 119.740892 
L 95.802109 124.791328 
L 96.065873 122.300702 
L 96.46152 114.344535 
L 96.593403 114.206167 
L 96.725285 114.275351 
L 96.857167 113.652695 
L 96.98905 114.275351 
L 97.252814 111.646357 
L 97.516579 112.199829 
L 97.912226 118.288027 
L 98.044108 118.772315 
L 98.175991 120.22518 
L 98.307873 118.841499 
L 98.571638 122.784991 
L 98.835402 117.111898 
L 98.967285 119.740892 
L 99.099167 118.910683 
L 99.362932 124.376224 
L 99.494814 126.175009 
L 99.626696 125.829089 
L 99.758579 127.074402 
L 99.890461 125.206433 
L 100.022343 126.313378 
L 100.154226 128.388899 
L 100.286108 128.388899 
L 100.41799 125.967457 
L 100.549873 126.52093 
L 100.813637 117.734554 
L 100.94552 118.080475 
L 101.473049 122.508254 
L 101.604931 120.986205 
L 101.736814 120.986205 
L 101.868696 123.407647 
L 102.000578 123.684383 
L 102.264343 132.124839 
L 102.528108 133.370152 
L 102.65999 135.584042 
L 102.791872 135.514858 
L 103.055637 137.521195 
L 103.187519 138.697324 
L 103.319402 138.420588 
L 103.583166 138.62814 
L 103.846931 135.376489 
L 103.978813 136.41425 
L 104.110696 136.345066 
L 104.242578 136.690987 
L 104.638225 134.20036 
L 104.90199 137.244459 
L 105.033872 136.552618 
L 105.297637 139.043245 
L 105.429519 135.445673 
L 105.825166 138.420588 
L 105.957048 138.420588 
L 106.088931 138.697324 
L 106.352695 135.929962 
L 106.61646 132.955047 
L 106.880225 135.584042 
L 107.143989 131.29463 
L 107.407754 128.73482 
L 107.539636 128.181347 
L 107.671519 128.319715 
L 107.935283 123.200095 
L 108.067166 122.992543 
L 108.199048 123.546015 
L 108.33093 121.954782 
L 108.462813 122.09315 
L 108.726577 120.501917 
L 109.122224 124.030304 
L 109.385989 129.149924 
L 109.649754 126.451746 
L 109.913519 130.533605 
L 110.045401 130.187685 
L 110.177283 130.256869 
L 110.441048 125.552353 
L 110.57293 126.797666 
L 110.704813 126.52093 
L 110.836695 125.759905 
L 111.10046 128.942372 
L 111.232342 128.458083 
L 111.364224 126.797666 
L 111.496107 122.231518 
L 111.627989 123.130911 
L 111.759871 127.21277 
L 111.891754 127.143586 
L 112.023636 127.766243 
L 112.155518 127.21277 
L 112.287401 127.627875 
L 112.683048 123.615199 
L 112.81493 124.99888 
L 112.946812 127.627875 
L 113.210577 126.728482 
L 113.474342 122.646622 
L 113.606224 124.30704 
L 113.869989 123.546015 
L 114.133753 120.363548 
L 114.265636 119.602524 
L 114.397518 121.262941 
L 114.5294 121.262941 
L 114.661283 120.571101 
L 114.925047 124.860512 
L 115.05693 124.583776 
L 115.452577 122.231518 
L 115.584459 122.300702 
L 115.716341 123.338463 
L 115.848224 121.539677 
L 115.980106 124.099488 
L 116.111988 124.237856 
L 116.243871 125.068065 
L 116.507635 124.376224 
L 116.639518 123.615199 
L 116.7714 123.684383 
L 117.035165 123.546015 
L 117.167047 123.615199 
L 117.562694 127.697059 
L 117.826459 123.269279 
L 118.090223 127.489507 
L 118.353988 130.256869 
L 118.48587 128.804004 
L 118.617753 128.596452 
L 118.749635 130.049317 
L 119.0134 127.973795 
L 119.277164 128.042979 
L 119.409047 127.835427 
L 119.672811 130.395237 
L 119.936576 135.099753 
L 120.068458 134.20036 
L 120.200341 127.420323 
L 120.332223 126.86685 
L 120.464105 127.697059 
L 120.595988 127.074402 
L 120.72787 128.112163 
L 120.859752 126.313378 
L 120.991635 126.52093 
L 121.255399 123.96112 
L 121.387282 123.753567 
L 121.782929 131.917286 
L 121.914811 131.502182 
L 122.046693 133.577704 
L 122.178576 133.577704 
L 122.310458 136.206698 
L 122.44234 136.06833 
L 122.574223 137.452011 
L 122.837987 135.514858 
L 122.96987 135.514858 
L 123.497399 140.011821 
L 123.761164 138.213036 
L 123.893046 137.036907 
L 124.024928 134.753833 
L 124.288693 139.043245 
L 124.420575 138.697324 
L 124.552458 139.112429 
L 124.68434 137.867116 
L 124.948105 130.810341 
L 125.079987 133.093415 
L 125.343752 131.432998 
L 125.607517 137.106091 
L 125.739399 136.621803 
L 126.135046 132.885863 
L 126.398811 137.382827 
L 126.530693 137.244459 
L 126.662575 137.867116 
L 126.794458 139.527533 
L 126.92634 138.143852 
L 127.190105 133.577704 
L 127.321987 134.477097 
L 127.849516 130.326053 
L 128.245163 121.74723 
L 128.377046 120.709469 
L 128.508928 122.023966 
L 128.64081 121.678046 
L 128.772693 119.53334 
L 128.904575 120.294364 
L 129.16834 112.684118 
L 129.300222 113.099222 
L 129.827751 120.640285 
L 130.091516 120.22518 
L 130.223398 119.810076 
L 130.355281 118.080475 
L 130.619045 125.344801 
L 130.750928 126.105825 
L 130.88281 125.621537 
L 131.146575 119.118235 
L 131.278457 118.495579 
L 131.410339 116.143321 
L 131.542222 117.111898 
L 131.674104 118.910683 
L 131.805986 118.426395 
L 131.937869 115.45148 
L 132.069751 115.243928 
L 132.201633 116.97353 
L 132.333516 117.181082 
L 132.59728 122.508254 
L 132.729163 120.917021 
L 132.861045 120.986205 
L 133.12481 116.627609 
L 133.388574 118.633947 
L 133.520457 118.288027 
L 133.652339 114.067799 
L 133.784221 115.382296 
L 134.047986 110.608596 
L 134.311751 112.130645 
L 134.575515 116.558425 
L 134.707398 114.967192 
L 134.971162 116.074137 
L 135.103045 119.256604 
L 135.234927 118.564763 
L 135.498692 122.646622 
L 135.630574 123.061727 
L 135.762456 125.967457 
L 135.894339 125.621537 
L 136.158103 131.017894 
L 136.421868 129.634212 
L 136.685633 131.917286 
L 136.817515 131.778918 
L 136.949397 129.980133 
L 137.08128 130.464421 
L 137.213162 130.326053 
L 137.345044 131.571366 
L 137.476927 131.363814 
L 137.872574 134.684649 
L 138.268221 132.747495 
L 138.531985 135.030569 
L 138.927632 130.810341 
L 139.059515 128.665636 
L 139.191397 128.527268 
L 139.587044 125.621537 
L 139.982691 128.458083 
L 140.114573 128.388899 
L 140.246456 130.187685 
L 140.378338 127.697059 
L 140.510221 128.250531 
L 140.642103 126.659298 
L 140.905868 120.22518 
L 141.169632 124.860512 
L 141.301515 122.508254 
L 141.433397 122.715807 
L 141.565279 123.130911 
L 141.697162 123.130911 
L 142.356573 143.678577 
L 142.488456 142.917552 
L 142.620338 141.464687 
L 142.75222 143.955313 
L 142.884103 144.024497 
L 143.543514 133.024231 
L 143.807279 126.382562 
L 143.939161 127.21277 
L 144.071044 126.590114 
L 144.466691 128.112163 
L 144.598573 129.149924 
L 144.730455 127.558691 
L 144.862338 124.168672 
L 144.99422 123.753567 
L 145.257985 131.363814 
L 145.389867 132.539943 
L 145.653632 131.64055 
L 145.785514 130.049317 
L 145.917396 126.590114 
L 146.313043 131.986471 
L 146.444926 131.087078 
L 146.70869 123.753567 
L 146.840573 122.43907 
L 146.972455 119.948444 
L 147.104337 119.810076 
L 147.23622 121.539677 
L 147.368102 126.451746 
L 147.631867 127.351139 
L 147.763749 127.351139 
L 147.895631 126.659298 
L 148.159396 130.049317 
L 148.291278 128.596452 
L 148.555043 129.841765 
L 148.686925 127.627875 
L 148.95069 119.464156 
L 149.082572 119.810076 
L 149.346337 125.690721 
L 149.478219 124.237856 
L 149.741984 128.873188 
L 149.873866 131.087078 
L 150.005749 130.671973 
L 150.401396 139.112429 
L 150.533278 139.181613 
L 150.797043 137.452011 
L 150.928925 137.521195 
L 151.19269 132.885863 
L 151.456454 124.791328 
L 151.588337 125.206433 
L 151.852101 128.250531 
L 151.983984 129.565028 
L 152.115866 129.149924 
L 152.511513 124.65296 
L 152.643395 125.898273 
L 152.90716 134.546281 
L 153.170925 127.005218 
L 153.434689 124.929696 
L 153.566572 125.898273 
L 153.698454 125.552353 
L 153.830336 126.659298 
L 153.962219 124.583776 
L 154.094101 124.929696 
L 154.357866 119.87926 
L 154.62163 118.357211 
L 154.753513 116.97353 
L 155.281042 108.048786 
L 155.412924 108.533074 
L 155.676689 101.13038 
L 155.808571 98.847306 
L 155.940454 102.583245 
L 156.204219 76.570392 
L 156.599866 104.950856 
L 156.86363 112.461389 
L 156.995513 115.175312 
L 157.127395 108.133102 
L 157.39116 71.280722 
L 157.523042 65.166731 
L 157.654924 65.597201 
L 157.786807 73.365996 
L 157.918689 61.265834 
L 158.182454 73.776911 
L 158.314336 75.802374 
L 158.446218 69.34354 
L 158.578101 72.305398 
L 158.709983 78.855293 
L 158.973748 61.317227 
L 159.237512 71.677425 
L 159.369395 74.459385 
L 159.633159 104.721998 
L 160.160689 88.313031 
L 160.424453 104.055204 
L 160.556336 95.487516 
L 160.688218 105.010189 
L 160.8201 100.435316 
L 161.215747 55.455023 
L 161.34763 54.371874 
L 161.479512 64.549896 
L 161.743277 41.315504 
L 162.007041 32.035691 
L 162.270806 50.141201 
L 162.666453 83.391893 
L 162.798335 88.694996 
L 162.930218 80.628642 
L 163.193982 107.301285 
L 163.325865 114.828798 
L 163.457747 114.493596 
L 163.589629 107.517084 
L 163.853394 134.340062 
L 163.985276 127.892927 
L 164.249041 93.274602 
L 164.380923 90.134094 
L 164.644688 80.455676 
L 164.77657 75.954747 
L 164.908453 77.980909 
L 165.040335 83.059515 
L 165.172217 97.41512 
L 165.435982 84.944172 
L 165.567864 85.786094 
L 165.831629 63.166259 
L 165.963511 83.220965 
L 166.095394 83.61134 
L 166.227276 95.753261 
L 166.359158 93.630886 
L 166.622923 75.015182 
L 166.754805 88.171081 
L 166.886688 85.150648 
L 167.01857 87.995197 
L 167.150452 76.812323 
L 167.282335 77.846985 
L 167.414217 67.19739 
L 167.546099 75.57175 
L 167.809864 100.11714 
L 167.941746 107.285215 
L 168.205511 94.238124 
L 168.337393 113.577426 
L 168.469276 111.639552 
L 168.601158 112.517155 
L 168.73304 114.306605 
L 168.996805 94.89108 
L 169.128687 101.734237 
L 169.392452 101.960589 
L 169.524334 103.551822 
L 169.656217 103.551822 
L 169.919981 96.287496 
L 170.183746 98.293833 
L 170.315628 96.149128 
L 170.447511 96.979336 
L 170.579393 101.407116 
L 170.711275 101.960589 
L 170.97504 101.407116 
L 171.370687 92.689925 
L 171.634452 85.148862 
L 171.766334 85.148862 
L 172.425746 70.827762 
L 172.557628 71.035314 
L 172.953275 78.092088 
L 173.21704 70.96613 
L 173.348922 71.727155 
L 173.744569 83.488445 
L 174.403981 99.331594 
L 174.667746 108.740626 
L 174.799628 108.533074 
L 174.93151 107.426129 
L 175.45904 94.696262 
L 175.722804 85.702335 
L 175.854687 86.324991 
L 175.986569 84.802942 
L 176.118451 84.664574 
L 176.250334 85.079678 
L 176.382216 84.664574 
L 176.514098 86.186623 
L 176.909745 76.639223 
L 177.041628 77.054327 
L 177.569157 70.481841 
L 177.701039 70.689394 
L 177.832922 70.343473 
L 177.964804 69.305712 
L 178.096686 72.280627 
L 178.228569 70.066737 
L 178.492333 72.418995 
L 178.624216 75.324726 
L 178.756098 74.840437 
L 178.88798 75.117173 
L 179.019863 73.802676 
L 179.41551 65.223853 
L 179.547392 60.035048 
L 179.811157 64.462828 
L 179.943039 64.047724 
L 180.074921 59.965864 
L 180.338686 44.122715 
L 180.470568 43.01577 
L 180.602451 42.946586 
L 180.734333 41.355352 
L 180.998098 49.588255 
L 181.393745 65.708141 
L 181.921274 99.193226 
L 182.316921 110.885332 
L 182.448803 111.853909 
L 182.580686 113.998615 
L 183.240097 103.136718 
L 183.37198 104.520399 
L 183.503862 103.69019 
L 183.635744 104.935503 
L 183.767627 105.004687 
L 183.899509 108.809811 
L 184.163274 106.803473 
L 184.427038 109.501651 
L 184.558921 108.878995 
L 184.822685 112.269013 
L 184.954568 113.168406 
L 185.08645 112.684118 
L 185.482097 104.312847 
L 185.745862 111.162069 
L 186.273391 108.048786 
L 186.537156 103.621006 
L 186.80092 107.702866 
L 187.064685 109.847571 
L 187.196568 110.67778 
L 187.32845 110.746964 
L 187.724097 112.960854 
L 187.987862 118.288027 
L 188.119744 118.357211 
L 188.515391 110.33186 
L 188.647273 108.809811 
L 188.779156 110.470228 
L 188.911038 110.401044 
L 189.04292 110.055124 
L 189.174803 112.130645 
L 189.438567 111.438805 
L 189.702332 121.401309 
L 190.097979 127.21277 
L 190.229861 127.005218 
L 190.493626 123.615199 
L 190.625508 124.030304 
L 190.757391 126.797666 
L 190.889273 126.451746 
L 191.021155 123.615199 
L 191.153038 123.269279 
L 191.28492 124.514592 
L 191.548685 122.508254 
L 191.680567 122.231518 
L 191.812449 124.860512 
L 191.944332 124.860512 
L 192.076214 124.099488 
L 192.208096 121.539677 
L 192.339979 121.539677 
L 192.603743 119.256604 
L 192.735626 118.149659 
L 192.867508 120.363548 
L 193.263155 113.791063 
L 193.52692 109.98594 
L 193.658802 110.67778 
L 193.790684 110.055124 
L 193.922567 110.746964 
L 194.318214 105.419792 
L 194.450096 107.218577 
L 194.581978 106.25 
L 194.713861 108.187154 
L 194.845743 111.784725 
L 194.977625 111.369621 
L 195.109508 111.784725 
L 195.373272 115.174744 
L 195.768919 123.546015 
L 195.900802 121.470493 
L 196.164566 124.30704 
L 196.296449 124.376224 
L 196.428331 126.451746 
L 196.560213 126.313378 
L 196.692096 124.514592 
L 196.823978 124.237856 
L 196.95586 123.684383 
L 197.087743 119.187419 
L 197.219625 118.564763 
L 197.351507 120.917021 
L 197.48339 120.917021 
L 197.615272 119.948444 
L 197.747154 120.917021 
L 197.879037 120.778653 
L 198.010919 119.948444 
L 198.142801 121.816414 
L 198.406566 120.432733 
L 198.538448 123.615199 
L 198.670331 123.130911 
L 198.802213 122.023966 
L 198.934095 122.715807 
L 199.065978 124.030304 
L 199.19786 123.061727 
L 199.329742 123.269279 
L 199.461625 126.659298 
L 199.593507 124.583776 
L 199.989154 128.665636 
L 200.121036 129.357476 
L 200.252919 128.665636 
L 200.384801 128.596452 
L 200.648566 132.470759 
L 201.044213 129.980133 
L 201.176095 130.395237 
L 201.307977 129.42666 
L 201.43986 129.357476 
L 201.571742 130.94871 
L 201.703624 131.017894 
L 201.967389 131.778918 
L 202.099271 131.571366 
L 202.231154 128.319715 
L 202.363036 128.665636 
L 202.494919 130.256869 
L 202.626801 128.319715 
L 202.758683 128.942372 
L 202.890566 131.156262 
L 203.15433 128.181347 
L 203.286213 126.86685 
L 203.418095 123.130911 
L 203.549977 124.237856 
L 203.813742 127.835427 
L 204.209389 122.508254 
L 204.341271 122.715807 
L 204.473154 123.200095 
L 204.605036 122.646622 
L 204.736918 121.124573 
L 204.868801 123.476831 
L 205.000683 122.09315 
L 205.132565 122.508254 
L 205.264448 122.300702 
L 205.39633 123.407647 
L 205.660095 128.042979 
L 205.923859 125.829089 
L 206.187624 131.225446 
L 206.319506 129.42666 
L 206.583271 131.225446 
L 206.715153 130.94871 
L 206.847036 131.363814 
L 206.978918 127.627875 
L 207.1108 127.281954 
L 207.242683 129.011556 
L 207.506447 120.363548 
L 207.63833 120.571101 
L 207.770212 124.376224 
L 208.033977 122.854175 
L 208.693388 113.929431 
L 208.825271 115.935769 
L 208.957153 115.243928 
L 209.616565 92.344004 
L 210.144094 86.947648 
L 210.275976 84.526206 
L 210.539741 85.079678 
L 210.671623 83.350077 
L 210.803506 84.733758 
L 211.06727 89.853378 
L 211.331035 92.413188 
L 211.462917 91.9289 
L 211.726682 97.186888 
L 211.858564 95.872391 
L 212.254211 109.363283 
L 212.386094 108.46389 
L 212.649858 109.847571 
L 212.913623 113.030038 
L 213.177388 107.633681 
L 213.30927 108.671442 
L 213.441152 108.671442 
L 213.704917 106.457552 
L 213.836799 107.564497 
L 214.496211 98.086281 
L 214.759976 97.04852 
L 215.02374 95.872391 
L 215.155623 96.7026 
L 215.287505 96.7026 
L 215.815034 103.136718 
L 215.946917 105.488976 
L 216.078799 102.098957 
L 216.210681 101.753036 
L 216.342564 102.168141 
L 216.474446 100.646091 
L 216.738211 93.658501 
L 216.870093 93.105029 
L 217.001975 91.9289 
L 217.26574 94.696262 
L 218.320799 120.778653 
L 218.452681 122.715807 
L 218.584564 121.470493 
L 218.848328 115.382296 
L 219.112093 114.067799 
L 219.771505 103.136718 
L 220.035269 96.910152 
L 220.167152 95.872391 
L 220.562799 87.1552 
L 220.694681 87.086016 
L 220.958446 88.815617 
L 221.22221 82.450684 
L 221.485975 90.614403 
L 221.617857 89.853378 
L 221.74974 91.721348 
L 222.145387 86.947648 
L 222.277269 84.94131 
L 222.409151 80.51353 
L 222.541034 79.960058 
L 222.672916 82.104763 
L 223.200445 73.18002 
L 223.46421 76.431671 
L 223.596092 76.154934 
L 223.727975 75.532278 
L 223.859857 75.601462 
L 223.991739 75.047989 
L 224.255504 70.343473 
L 224.387386 72.488179 
L 224.519269 72.626547 
L 224.651151 72.488179 
L 224.783033 71.865523 
L 224.914916 71.796339 
L 225.046798 71.865523 
L 225.17868 73.52594 
L 225.70621 90.337667 
L 225.838092 91.513796 
L 225.969974 91.306243 
L 226.233739 94.073606 
L 226.365621 91.58298 
L 226.761268 79.337401 
L 226.893151 79.475769 
L 227.025033 79.129849 
L 227.156915 80.85945 
L 227.42068 73.318388 
L 227.552562 73.18002 
L 227.684445 71.865523 
L 227.816327 72.418995 
L 228.080092 83.765181 
L 228.211974 81.897211 
L 228.343856 78.230456 
L 228.475739 77.815352 
L 228.871386 86.740095 
L 229.003268 83.557629 
L 229.13515 85.702335 
L 229.267033 84.457021 
L 229.530797 80.928634 
L 229.66268 83.765181 
L 230.190209 77.261879 
L 230.322091 78.714745 
L 230.453974 83.419261 
L 230.717738 84.111101 
L 230.981503 87.224384 
L 231.113385 87.985409 
L 231.37715 94.696262 
L 231.509032 95.042183 
L 231.904679 99.469962 
L 232.300326 109.98594 
L 232.432209 109.98594 
L 232.564091 111.092884 
L 232.959738 121.608862 
L 233.355385 124.583776 
L 233.61915 125.552353 
L 234.014797 133.093415 
L 234.146679 132.194023 
L 234.542326 136.206698 
L 234.806091 141.326319 
L 234.937973 142.225711 
L 235.069856 142.087343 
L 235.201738 140.703662 
L 235.33362 140.703662 
L 235.465503 141.464687 
L 235.597385 140.49611 
L 235.86115 134.753833 
L 236.124914 133.439336 
L 236.256797 132.263207 
L 236.388679 133.992808 
L 236.520561 132.609127 
L 236.784326 127.973795 
L 236.916208 126.86685 
L 237.179973 130.049317 
L 237.311855 130.810341 
L 237.57562 126.728482 
L 237.707502 127.005218 
L 237.839385 124.860512 
L 237.971267 124.722144 
L 238.366914 130.326053 
L 238.630679 128.181347 
L 238.762561 125.483169 
L 239.29009 129.357476 
L 239.685737 121.608862 
L 239.949502 117.66537 
L 240.081384 117.457818 
L 240.213267 117.803738 
L 240.477031 115.866585 
L 240.740796 112.54575 
L 240.872678 114.413719 
L 241.136443 112.338198 
L 241.400208 116.143321 
L 241.53209 115.797401 
L 241.663972 116.97353 
L 241.927737 112.614934 
L 242.191502 115.243928 
L 242.323384 115.313112 
L 242.587149 119.118235 
L 242.850913 112.130645 
L 242.982796 112.753302 
L 243.24656 106.665105 
L 243.378443 104.243663 
L 243.642207 96.425864 
L 243.77409 94.696262 
L 244.037854 88.746433 
L 244.169737 89.092353 
L 244.433501 85.28723 
L 244.565384 85.28723 
L 244.697266 87.362752 
L 244.961031 94.903815 
L 245.092913 94.48871 
L 245.224795 94.903815 
L 245.356678 98.155465 
L 245.48856 97.532809 
L 245.620442 98.91649 
L 245.752325 102.237325 
L 246.411736 94.073606 
L 246.543619 95.734023 
L 246.675501 95.111367 
L 246.939266 89.438274 
L 247.071148 88.469697 
L 247.20303 86.255807 
L 247.466795 93.658501 
L 247.73056 85.494782 
L 247.862442 86.601727 
L 247.994324 85.010494 
L 248.126207 84.872126 
L 248.258089 88.054593 
L 248.389971 87.1552 
L 248.521854 85.218046 
L 248.653736 86.186623 
L 248.785618 85.010494 
L 248.917501 86.117439 
L 249.049383 85.979071 
L 249.313148 81.205371 
L 249.44503 82.589052 
L 249.576913 82.589052 
L 249.708795 81.620475 
L 250.104442 90.199298 
L 250.368207 85.010494 
L 250.763854 94.627078 
L 250.895736 94.14279 
L 251.555148 71.450418 
L 251.818912 75.809014 
L 252.214559 64.047724 
L 252.346442 62.664043 
L 252.742089 76.293302 
L 253.005853 81.205371 
L 253.137736 81.758843 
L 253.269618 80.098426 
L 253.665265 94.972999 
L 254.852206 127.005218 
L 255.115971 125.344801 
L 255.247853 125.898273 
L 255.379735 127.074402 
L 255.6435 124.099488 
L 255.775382 125.275617 
L 255.907265 127.489507 
L 256.039147 127.697059 
L 256.171029 126.382562 
L 256.302912 123.684383 
L 256.434794 125.829089 
L 256.830441 117.942106 
L 256.962323 117.942106 
L 257.094206 117.181082 
L 257.489853 107.149393 
L 257.753617 105.143055 
L 258.017382 109.155731 
L 258.149264 107.426129 
L 258.281147 108.394706 
L 258.544911 105.696528 
L 258.808676 110.262676 
L 259.336205 117.66537 
L 259.468088 116.212505 
L 259.731852 119.118235 
L 259.863735 120.086812 
L 260.259382 116.212505 
L 260.391264 117.31945 
L 260.655029 112.338198 
L 260.786911 112.614934 
L 261.182558 121.678046 
L 261.446323 119.87926 
L 261.710087 123.338463 
L 261.84197 122.715807 
L 261.973852 123.407647 
L 262.105734 122.646622 
L 262.237617 124.860512 
L 262.633264 121.193757 
L 262.765146 121.816414 
L 263.028911 124.929696 
L 263.424558 119.187419 
L 263.688322 117.042714 
L 263.952087 118.841499 
L 264.611499 102.306509 
L 264.875264 106.526737 
L 265.007146 106.665105 
L 265.139028 106.319184 
L 265.270911 104.382031 
L 265.402793 104.243663 
L 265.534675 104.589583 
L 265.666558 104.451215 
L 265.79844 104.658767 
L 266.194087 116.765977 
L 266.457852 115.797401 
L 266.853499 112.960854 
L 266.985381 111.923093 
L 267.249146 113.306774 
L 267.776675 110.539412 
L 268.172322 116.281689 
L 268.304204 117.66537 
L 268.567969 124.445408 
L 268.699851 127.351139 
L 268.831734 127.627875 
L 268.963616 128.388899 
L 269.095498 130.187685 
L 269.227381 134.269544 
L 269.359263 134.753833 
L 269.491145 136.621803 
L 269.623028 140.426926 
L 269.75491 140.011821 
L 269.886792 137.659563 
L 270.018675 137.313643 
L 270.282439 133.923624 
L 270.809969 125.483169 
L 270.941851 124.030304 
L 271.073733 121.262941 
L 271.205616 121.470493 
L 271.46938 123.269279 
L 271.601263 123.061727 
L 271.733145 125.690721 
L 271.865027 125.137249 
L 271.99691 125.690721 
L 272.128792 125.275617 
L 272.260674 125.759905 
L 272.788204 123.200095 
L 273.051968 119.87926 
L 273.447615 117.388634 
L 273.71138 118.910683 
L 274.107027 120.847837 
L 274.502674 119.53334 
L 274.634556 120.986205 
L 274.898321 119.87926 
L 275.030203 117.388634 
L 275.162086 112.54575 
L 275.293968 112.269013 
L 275.42585 112.614934 
L 275.557733 111.923093 
L 275.689615 108.602258 
L 275.821497 108.740626 
L 275.95338 107.910418 
L 276.349027 103.067534 
L 276.480909 103.551822 
L 276.744674 108.11797 
L 276.876556 106.941841 
L 277.008438 107.979602 
L 277.272203 114.482903 
L 277.404085 114.552087 
L 277.535968 114.067799 
L 277.931615 117.388634 
L 278.195379 116.420057 
L 278.459144 121.885598 
L 278.722909 118.218843 
L 278.854791 118.288027 
L 279.118556 120.294364 
L 279.250438 118.979867 
L 279.38232 116.074137 
L 279.646085 115.659032 
L 279.90985 109.640019 
L 280.041732 110.193492 
L 280.173615 108.602258 
L 280.305497 109.570835 
L 280.569262 114.75964 
L 281.228673 122.300702 
L 281.492438 120.294364 
L 281.62432 118.080475 
L 281.888085 119.602524 
L 282.019967 120.017628 
L 282.15185 117.66537 
L 282.415614 118.841499 
L 282.679379 115.10556 
L 282.943144 119.53334 
L 283.206908 123.546015 
L 283.338791 120.917021 
L 283.734438 125.483169 
L 283.86632 125.413985 
L 284.130085 129.980133 
L 284.261967 128.942372 
L 284.393849 126.797666 
L 284.525732 127.558691 
L 284.657614 126.313378 
L 284.789496 126.244194 
L 285.317026 119.256604 
L 285.58079 117.66537 
L 285.844555 119.740892 
L 286.10832 116.489241 
L 286.240202 118.149659 
L 286.372084 118.357211 
L 286.635849 114.067799 
L 286.767731 115.589848 
L 286.899614 115.520664 
L 287.163378 113.721879 
L 287.295261 113.583511 
L 287.559025 116.627609 
L 287.690908 116.004953 
L 287.954672 120.432733 
L 288.218437 121.678046 
L 288.482202 125.829089 
L 288.614084 125.344801 
L 288.745966 126.451746 
L 289.009731 123.615199 
L 289.273496 120.778653 
L 289.405378 123.476831 
L 289.53726 122.09315 
L 289.801025 117.250266 
L 290.06479 119.187419 
L 290.196672 118.357211 
L 290.460437 115.313112 
L 290.856084 116.627609 
L 290.987966 117.042714 
L 291.119848 116.281689 
L 291.251731 113.652695 
L 291.383613 113.514327 
L 291.647378 110.608596 
L 292.043025 120.847837 
L 292.174907 120.640285 
L 292.306789 118.495579 
L 293.098083 129.495844 
L 293.229966 126.797666 
L 293.49373 116.765977 
L 293.625613 115.10556 
L 293.757495 115.10556 
L 294.02126 111.715541 
L 294.285024 112.614934 
L 294.548789 110.33186 
L 294.944436 121.055389 
L 295.076318 120.640285 
L 295.208201 122.923359 
L 295.340083 122.923359 
L 295.471966 124.30704 
L 295.603848 122.715807 
L 295.73573 118.910683 
L 295.999495 117.872922 
L 296.131377 116.765977 
L 296.395142 121.124573 
L 296.527024 121.332125 
L 296.658907 121.124573 
L 297.186436 131.986471 
L 297.318318 131.156262 
L 297.97773 121.193757 
L 298.109612 122.300702 
L 298.241495 121.332125 
L 298.373377 118.288027 
L 298.505259 118.218843 
L 298.769024 119.671708 
L 299.032789 119.325788 
L 299.164671 116.835161 
L 299.296553 117.388634 
L 299.6922 106.457552 
L 299.955965 102.514061 
L 300.087847 98.91649 
L 300.21973 98.57057 
L 300.483494 104.243663 
L 300.615377 104.105294 
L 300.747259 103.621006 
L 301.011024 113.652695 
L 301.011024 113.652695 
" style="fill:none;stroke:#008000;stroke-linecap:square;stroke-opacity:0.9;stroke-width:1.5;"/>
   </g>
   <g id="line2d_11">
    <path clip-path="url(#p260e2d82f3)" d="M 24.19 156.754364 
L 24.321882 157.0311 
L 24.453765 159.314174 
L 24.717529 157.169468 
L 25.113176 155.924155 
L 25.376941 156.477628 
L 25.640706 154.056186 
L 25.90447 153.502713 
L 26.036353 153.779449 
L 26.300117 153.502713 
L 26.695764 156.961916 
L 26.959529 155.024762 
L 27.091411 155.509051 
L 27.618941 148.521461 
L 27.882705 153.433529 
L 28.014588 154.194554 
L 28.14647 153.433529 
L 28.410235 157.861309 
L 28.542117 155.993339 
L 28.673999 156.33926 
L 28.805882 155.993339 
L 29.465293 144.993074 
L 29.597176 146.861043 
L 29.86094 152.60332 
L 30.124705 154.332922 
L 30.256587 157.37702 
L 30.38847 154.955578 
L 30.520352 154.748026 
L 30.652234 154.263738 
L 30.784117 154.332922 
L 30.915999 153.917817 
L 31.047881 151.842296 
L 31.179764 153.917817 
L 31.311646 153.710265 
L 31.443528 154.47129 
L 31.839175 159.175806 
L 31.971058 158.691518 
L 32.234823 160.697855 
L 32.366705 158.622333 
L 32.498587 158.760702 
L 32.762352 156.408444 
L 32.894234 153.433529 
L 33.026117 153.364345 
L 33.421764 159.037438 
L 33.685528 159.798463 
L 33.949293 152.2574 
L 34.213058 149.835958 
L 34.34494 151.288823 
L 34.476822 151.427191 
L 34.740587 153.917817 
L 34.872469 152.672504 
L 35.004352 154.748026 
L 35.136234 153.502713 
L 35.268116 153.502713 
L 35.399999 153.156793 
L 35.531881 151.91148 
L 35.663763 151.773112 
L 36.05941 142.640816 
L 36.191293 142.986736 
L 36.323175 141.533871 
L 36.455057 138.62814 
L 37.246351 155.854971 
L 37.641998 149.420854 
L 37.773881 149.213301 
L 37.905763 149.559222 
L 38.169528 153.225977 
L 38.433292 153.710265 
L 38.565175 153.502713 
L 38.828939 150.458614 
L 38.960822 150.873719 
L 39.224586 152.949241 
L 39.356469 153.571897 
L 39.620233 157.37702 
L 40.01588 148.867381 
L 40.147763 147.068596 
L 40.279645 143.471024 
L 40.411527 143.05592 
L 40.54341 141.879791 
L 40.807174 145.961651 
L 40.939057 144.577969 
L 41.070939 147.345332 
L 41.202821 145.754098 
L 41.466586 148.106356 
L 41.598468 147.691252 
L 41.730351 148.383093 
L 41.862233 146.238387 
L 41.994115 147.068596 
L 42.25788 149.974326 
L 42.653527 156.131707 
L 42.917292 148.106356 
L 43.049174 148.383093 
L 43.181056 145.062258 
L 43.312939 145.61573 
L 43.444821 146.930227 
L 43.708586 154.12537 
L 43.97235 151.150455 
L 44.104233 149.905142 
L 44.236115 146.238387 
L 44.49988 147.898804 
L 44.763644 146.238387 
L 45.159291 149.490038 
L 45.291174 149.144117 
L 45.423056 150.458614 
L 45.554938 149.628406 
L 45.686821 147.276148 
L 45.950585 146.515123 
L 46.082468 145.26981 
L 46.21435 145.754098 
L 46.609997 152.810872 
L 46.741879 151.842296 
L 47.005644 152.810872 
L 47.137526 152.810872 
L 47.269409 151.288823 
L 47.533174 144.301233 
L 47.665056 144.162865 
L 47.796938 144.232049 
L 47.928821 144.785522 
L 48.060703 144.647153 
L 48.324468 152.049848 
L 48.45635 152.188216 
L 48.720115 149.766774 
L 48.851997 152.534136 
L 49.247644 145.61573 
L 49.379526 145.892467 
L 49.511409 145.546546 
L 49.907056 135.376489 
L 50.17082 139.043245 
L 50.302703 140.426926 
L 50.434585 140.49611 
L 50.69835 144.439601 
L 50.830232 142.71 
L 50.962114 143.955313 
L 51.225879 138.835692 
L 51.489644 141.257135 
L 51.621526 140.703662 
L 51.753408 138.489772 
L 51.885291 139.043245 
L 52.017173 143.263472 
L 52.149055 142.640816 
L 52.544702 148.313909 
L 52.676585 147.691252 
L 52.808467 148.313909 
L 52.940349 149.559222 
L 53.335996 144.232049 
L 53.467879 144.508785 
L 53.599761 144.024497 
L 53.731643 145.062258 
L 53.995408 149.074933 
L 54.259173 150.804535 
L 54.522937 148.313909 
L 54.65482 149.005749 
L 54.786702 148.936565 
L 55.050467 152.60332 
L 55.182349 154.886394 
L 55.973643 138.835692 
L 56.237408 143.332656 
L 56.36929 141.672239 
L 56.501172 142.71 
L 56.633055 142.156527 
L 56.764937 142.779184 
L 57.028702 141.395503 
L 57.160584 144.92389 
L 57.292466 144.993074 
L 57.424349 146.376755 
L 57.556231 146.376755 
L 57.688113 148.313909 
L 57.819996 148.452277 
L 57.951878 149.835958 
L 58.215643 153.087609 
L 58.347525 153.779449 
L 58.479407 150.873719 
L 58.61129 150.596983 
L 58.875054 145.754098 
L 59.006937 145.477362 
L 59.138819 143.125104 
L 59.270701 143.125104 
L 59.402584 145.131442 
L 59.534466 144.92389 
L 59.798231 140.703662 
L 60.061995 140.357742 
L 60.193878 135.653226 
L 60.32576 137.659563 
L 60.589525 144.439601 
L 60.985172 152.395768 
L 61.117054 151.012087 
L 61.512701 140.634478 
L 61.776466 139.458349 
L 61.908348 139.735085 
L 62.303995 143.194288 
L 62.435877 142.71 
L 62.56776 141.257135 
L 62.831524 143.678577 
L 62.963407 143.747761 
L 63.095289 144.92389 
L 63.490936 143.05592 
L 63.622819 143.609393 
L 64.018466 149.835958 
L 64.414113 153.571897 
L 64.677877 155.163131 
L 64.80976 156.131707 
L 65.073524 159.729278 
L 65.205407 158.89907 
L 65.337289 159.106622 
L 65.601054 156.68518 
L 65.864818 152.880057 
L 66.128583 154.748026 
L 66.787995 163.949506 
L 67.051759 160.559487 
L 67.315524 157.238652 
L 67.579289 149.835958 
L 67.711171 149.905142 
L 67.843053 150.458614 
L 67.974936 150.112694 
L 68.106818 150.112694 
L 68.2387 149.213301 
L 68.370583 151.980664 
L 68.502465 150.804535 
L 68.634347 147.82962 
L 69.029994 150.596983 
L 69.161877 148.17554 
L 69.293759 147.898804 
L 69.425641 150.527799 
L 69.689406 147.622068 
L 69.821288 147.760436 
L 69.953171 149.835958 
L 70.085053 149.005749 
L 70.216935 147.345332 
L 70.348818 143.540208 
L 70.4807 144.301233 
L 70.612582 143.816945 
L 70.744465 142.502448 
L 71.271994 150.873719 
L 71.403876 151.081271 
L 71.535759 150.251062 
L 71.667641 150.251062 
L 71.799523 150.458614 
L 71.931406 153.156793 
L 72.063288 153.156793 
L 72.19517 153.571897 
L 72.458935 157.0311 
L 72.590817 156.68518 
L 72.7227 155.163131 
L 72.854582 155.578235 
L 73.118347 157.861309 
L 73.513994 152.188216 
L 73.645876 152.880057 
L 73.909641 148.936565 
L 74.041523 147.552884 
L 74.173405 149.766774 
L 74.305288 148.729013 
L 74.43717 145.754098 
L 74.569052 147.898804 
L 74.700935 148.106356 
L 74.832817 149.144117 
L 74.964699 149.005749 
L 75.096582 151.012087 
L 75.228464 151.288823 
L 75.360346 150.942903 
L 75.492229 148.313909 
L 75.624111 149.628406 
L 75.755993 149.144117 
L 76.019758 149.69759 
L 76.15164 148.452277 
L 76.283523 151.565559 
L 76.415405 151.358007 
L 76.547287 150.942903 
L 76.67917 148.798197 
L 76.811052 148.936565 
L 77.074817 149.420854 
L 77.338581 147.760436 
L 77.470464 150.251062 
L 77.602346 149.905142 
L 77.866111 141.326319 
L 77.997993 141.533871 
L 78.261758 139.665901 
L 78.657405 146.722675 
L 78.789287 144.232049 
L 78.92117 144.716337 
L 79.184934 138.974061 
L 80.108111 149.144117 
L 80.371875 145.823282 
L 80.503758 146.445939 
L 80.63564 143.609393 
L 80.767522 144.162865 
L 80.899405 142.087343 
L 81.163169 146.584307 
L 81.295052 145.754098 
L 81.426934 149.144117 
L 81.558816 147.691252 
L 82.086346 156.546812 
L 82.218228 155.578235 
L 82.35011 156.200891 
L 82.613875 150.320246 
L 82.87764 145.892467 
L 83.009522 148.106356 
L 83.273287 146.100019 
L 83.405169 147.276148 
L 83.537051 149.490038 
L 83.800816 143.05592 
L 84.196463 148.521461 
L 84.460228 149.974326 
L 84.59211 149.905142 
L 84.723992 149.974326 
L 84.855875 149.628406 
L 85.119639 147.691252 
L 85.251522 149.766774 
L 85.383404 149.213301 
L 85.647169 146.445939 
L 85.779051 144.024497 
L 85.910933 144.370417 
L 86.042816 143.678577 
L 86.174698 145.200626 
L 86.30658 145.338994 
L 86.438463 145.200626 
L 86.570345 147.967988 
L 86.702227 147.206964 
L 86.83411 145.61573 
L 86.965992 142.156527 
L 87.097874 142.502448 
L 87.229757 141.603055 
L 87.361639 139.873453 
L 87.493521 139.665901 
L 87.625404 140.911214 
L 87.757286 144.508785 
L 87.889168 144.232049 
L 88.152933 147.967988 
L 88.284815 148.798197 
L 88.416698 146.861043 
L 88.680462 148.452277 
L 88.944227 145.200626 
L 89.076109 144.716337 
L 89.207992 148.313909 
L 89.471756 145.684914 
L 89.603639 146.445939 
L 89.867403 145.961651 
L 89.999286 142.502448 
L 90.131168 143.609393 
L 90.394933 140.15019 
L 90.658697 138.074668 
L 90.79058 139.250797 
L 90.922462 138.766508 
L 91.186227 141.326319 
L 91.449991 146.307571 
L 91.581874 146.861043 
L 91.713756 149.074933 
L 91.845638 147.898804 
L 92.50505 135.168937 
L 92.768815 140.081005 
L 93.032579 149.074933 
L 93.296344 150.735351 
L 93.428226 149.835958 
L 93.691991 150.596983 
L 93.823873 146.445939 
L 93.955756 146.515123 
L 94.087638 147.898804 
L 94.219521 146.653491 
L 94.351403 144.093681 
L 94.483285 144.854706 
L 94.615168 149.835958 
L 94.74705 150.458614 
L 94.878932 149.974326 
L 95.142697 152.810872 
L 95.406462 147.276148 
L 95.670226 146.030835 
L 95.802109 145.754098 
L 95.933991 146.930227 
L 96.065873 150.458614 
L 96.197756 150.38943 
L 96.329638 151.150455 
L 96.593403 149.69759 
L 96.857167 150.942903 
L 97.120932 145.338994 
L 97.516579 150.527799 
L 97.648461 151.012087 
L 97.912226 155.993339 
L 98.044108 153.779449 
L 98.307873 153.364345 
L 98.967285 141.395503 
L 99.099167 138.974061 
L 99.231049 140.288558 
L 99.626696 149.282485 
L 99.890461 152.741688 
L 100.022343 152.810872 
L 100.286108 147.4837 
L 100.41799 149.490038 
L 100.549873 149.074933 
L 100.813637 143.471024 
L 100.94552 143.471024 
L 101.077402 143.747761 
L 101.209284 141.464687 
L 101.341167 141.672239 
L 101.473049 143.263472 
L 101.604931 143.194288 
L 101.736814 146.307571 
L 101.868696 146.653491 
L 102.396225 153.018425 
L 102.528108 151.496375 
L 102.65999 153.225977 
L 102.791872 153.087609 
L 102.923755 151.496375 
L 103.187519 147.068596 
L 103.319402 145.961651 
L 103.451284 145.892467 
L 103.583166 145.062258 
L 103.715049 145.408178 
L 104.110696 150.458614 
L 104.242578 149.213301 
L 104.37446 149.628406 
L 104.506343 149.351669 
L 104.770107 146.791859 
L 104.90199 146.930227 
L 105.165754 149.974326 
L 105.297637 150.873719 
L 105.429519 150.596983 
L 105.693284 147.206964 
L 105.825166 144.439601 
L 105.957048 144.370417 
L 106.088931 142.986736 
L 106.880225 147.345332 
L 107.143989 144.024497 
L 107.407754 147.276148 
L 107.671519 145.26981 
L 107.803401 146.445939 
L 107.935283 149.559222 
L 108.199048 146.100019 
L 108.462813 143.886129 
L 108.594695 143.540208 
L 108.726577 142.294895 
L 108.85846 146.307571 
L 108.990342 145.131442 
L 109.122224 145.200626 
L 109.385989 146.169203 
L 109.517872 146.238387 
L 109.649754 143.816945 
L 109.913519 147.691252 
L 110.045401 146.307571 
L 110.177283 143.609393 
L 110.309166 143.471024 
L 110.441048 143.540208 
L 110.57293 141.533871 
L 110.704813 141.533871 
L 111.10046 148.244725 
L 111.232342 148.798197 
L 111.627989 151.773112 
L 111.759871 151.634743 
L 112.287401 144.854706 
L 112.683048 136.41425 
L 112.81493 135.791594 
L 113.342459 142.294895 
L 113.474342 141.464687 
L 113.606224 142.571632 
L 113.869989 140.288558 
L 114.001871 140.703662 
L 114.265636 145.546546 
L 114.397518 145.338994 
L 114.5294 147.414516 
L 114.661283 147.345332 
L 114.793165 146.722675 
L 115.05693 142.156527 
L 115.188812 141.603055 
L 115.452577 142.225711 
L 115.584459 143.540208 
L 115.716341 146.307571 
L 115.848224 145.823282 
L 116.243871 141.533871 
L 116.639518 144.024497 
L 116.7714 144.232049 
L 116.903282 141.464687 
L 117.035165 144.577969 
L 117.298929 141.326319 
L 117.430812 141.810607 
L 117.562694 140.15019 
L 117.694576 143.125104 
L 117.826459 141.395503 
L 118.090223 143.609393 
L 118.222106 143.263472 
L 118.48587 146.238387 
L 119.0134 141.603055 
L 119.277164 143.40184 
L 119.409047 145.200626 
L 120.068458 140.772846 
L 120.332223 135.376489 
L 120.595988 139.596717 
L 120.72787 139.043245 
L 120.859752 136.206698 
L 121.123517 139.804269 
L 121.255399 138.005484 
L 121.914811 147.622068 
L 122.178576 148.17554 
L 122.44234 150.181878 
L 122.706105 144.647153 
L 122.837987 144.647153 
L 123.101752 141.049582 
L 123.365517 145.546546 
L 123.497399 144.508785 
L 123.629281 144.647153 
L 123.761164 145.754098 
L 123.893046 144.093681 
L 124.156811 139.389165 
L 124.288693 138.558956 
L 124.420575 139.389165 
L 124.552458 137.382827 
L 124.68434 137.452011 
L 124.816222 137.797932 
L 124.948105 139.112429 
L 125.079987 142.294895 
L 125.21187 139.389165 
L 125.343752 139.596717 
L 125.607517 141.948975 
L 125.739399 139.804269 
L 125.871281 139.873453 
L 126.266928 142.917552 
L 126.398811 144.093681 
L 126.530693 146.861043 
L 127.321987 135.099753 
L 127.981399 146.100019 
L 128.113281 145.754098 
L 128.245163 143.747761 
L 128.508928 135.168937 
L 128.64081 136.829355 
L 128.772693 134.061992 
L 129.036457 136.137514 
L 129.563987 148.659829 
L 129.695869 148.729013 
L 130.091516 147.13778 
L 130.355281 141.879791 
L 130.487163 141.948975 
L 130.88281 137.797932 
L 131.014692 138.143852 
L 131.146575 137.452011 
L 131.278457 137.521195 
L 132.069751 146.445939 
L 132.333516 146.861043 
L 132.59728 144.301233 
L 132.729163 144.508785 
L 132.992927 142.640816 
L 133.12481 146.238387 
L 133.256692 146.722675 
L 133.520457 148.936565 
L 134.047986 145.754098 
L 134.311751 140.772846 
L 134.575515 145.961651 
L 134.707398 146.030835 
L 134.971162 148.867381 
L 135.103045 152.949241 
L 135.234927 151.773112 
L 135.498692 144.577969 
L 135.894339 141.326319 
L 136.026221 137.9363 
L 136.289986 144.232049 
L 136.55375 148.106356 
L 136.685633 148.867381 
L 136.817515 153.364345 
L 137.213162 148.106356 
L 137.345044 148.244725 
L 137.740691 153.087609 
L 137.872574 151.773112 
L 138.004456 152.534136 
L 138.136338 152.326584 
L 138.268221 150.735351 
L 138.400103 146.030835 
L 138.531985 147.552884 
L 138.663868 150.38943 
L 138.79575 148.452277 
L 139.059515 153.018425 
L 139.191397 157.515389 
L 139.455162 153.295161 
L 139.587044 153.848633 
L 139.982691 145.131442 
L 140.246456 143.816945 
L 140.642103 145.477362 
L 140.773985 146.100019 
L 140.905868 148.244725 
L 141.03775 148.521461 
L 141.169632 147.622068 
L 141.301515 148.244725 
L 141.433397 149.766774 
L 141.697162 146.791859 
L 141.960926 148.798197 
L 142.092809 149.974326 
L 142.224691 146.930227 
L 142.488456 148.17554 
L 142.620338 148.452277 
L 142.884103 145.823282 
L 143.015985 148.313909 
L 143.147867 148.452277 
L 143.27975 147.13778 
L 143.543514 149.835958 
L 143.675397 149.144117 
L 144.071044 151.081271 
L 144.334808 143.540208 
L 144.466691 144.093681 
L 144.730455 140.84203 
L 145.126102 151.634743 
L 145.257985 151.288823 
L 145.389867 151.634743 
L 145.521749 152.741688 
L 145.917396 146.307571 
L 146.049279 147.206964 
L 146.972455 136.690987 
L 147.104337 138.005484 
L 147.23622 137.244459 
L 147.368102 137.728747 
L 147.631867 135.514858 
L 147.895631 133.024231 
L 148.027514 130.879526 
L 148.159396 130.810341 
L 148.423161 134.407913 
L 148.686925 132.885863 
L 148.818808 133.923624 
L 148.95069 133.992808 
L 149.082572 135.860778 
L 149.214455 135.999146 
L 149.478219 140.15019 
L 149.610102 141.395503 
L 149.873866 139.250797 
L 150.005749 140.426926 
L 150.137631 139.389165 
L 150.269513 139.389165 
L 150.401396 138.766508 
L 150.533278 140.15019 
L 150.66516 139.181613 
L 150.797043 139.735085 
L 151.19269 145.823282 
L 151.456454 149.628406 
L 151.720219 145.338994 
L 151.852101 140.49611 
L 151.983984 141.18795 
L 152.379631 135.514858 
L 152.511513 133.50852 
L 152.643395 137.867116 
L 153.039042 135.791594 
L 153.302807 138.420588 
L 153.566572 132.539943 
L 153.698454 135.653226 
L 153.830336 135.168937 
L 154.094101 135.653226 
L 154.225983 138.28222 
L 154.489748 136.898539 
L 154.62163 140.011821 
L 154.753513 139.181613 
L 154.885395 136.552618 
L 155.017277 136.621803 
L 155.14916 135.584042 
L 155.281042 135.514858 
L 155.544807 129.219108 
L 156.072336 135.774657 
L 156.204219 135.749917 
L 156.336101 130.427027 
L 156.467983 134.280733 
L 156.599866 133.09605 
L 156.731748 134.324529 
L 156.86363 137.800385 
L 157.127395 135.206786 
L 157.259277 136.488289 
L 157.39116 135.185795 
L 157.523042 136.980956 
L 157.654924 132.432169 
L 157.786807 136.523516 
L 157.918689 146.497323 
L 158.050571 128.364 
L 158.182454 126.907563 
L 158.446218 130.944934 
L 158.578101 136.584546 
L 158.709983 127.744505 
L 158.841865 134.130638 
L 158.973748 128.109605 
L 159.10563 132.828198 
L 159.369395 128.624882 
L 159.501277 139.0365 
L 159.633159 138.976016 
L 159.765042 142.124132 
L 159.896924 141.233288 
L 160.028806 142.940128 
L 160.160689 141.990814 
L 160.292571 142.984623 
L 160.424453 148.077111 
L 160.556336 146.328433 
L 160.688218 146.473831 
L 161.083865 142.598108 
L 161.215747 145.249578 
L 161.34763 144.228041 
L 161.479512 138.906895 
L 161.611394 138.234437 
L 161.743277 139.418745 
L 161.875159 131.712432 
L 162.007041 141.745914 
L 162.138924 142.185902 
L 162.270806 136.564576 
L 162.534571 144.960343 
L 162.666453 141.434864 
L 162.798335 143.018235 
L 162.930218 142.514136 
L 163.0621 155.416258 
L 163.457747 147.399059 
L 163.589629 153.721357 
L 163.721512 154.496802 
L 163.853394 153.680285 
L 163.985276 150.02153 
L 164.117159 143.099848 
L 164.249041 144.48994 
L 164.380923 143.085143 
L 164.512806 142.936427 
L 164.77657 146.585691 
L 164.908453 148.616439 
L 165.040335 148.694022 
L 165.3041 142.222839 
L 165.435982 144.937699 
L 165.567864 141.050899 
L 165.699747 130.580071 
L 165.831629 131.788741 
L 165.963511 138.811279 
L 166.095394 133.738415 
L 166.227276 142.845268 
L 166.359158 143.317842 
L 166.491041 146.230693 
L 166.754805 134.806652 
L 166.886688 129.975918 
L 167.01857 131.43332 
L 167.150452 135.03125 
L 167.282335 133.165648 
L 167.677982 136.973989 
L 167.809864 141.396119 
L 168.205511 135.19926 
L 168.337393 138.530037 
L 168.469276 138.414083 
L 168.601158 142.793416 
L 168.864923 131.148908 
L 168.996805 133.692822 
L 169.128687 133.543605 
L 169.26057 137.867116 
L 169.524334 136.690987 
L 169.919981 139.181613 
L 170.051864 137.9363 
L 170.183746 135.099753 
L 170.579393 139.942637 
L 170.843158 139.043245 
L 170.97504 142.087343 
L 171.370687 135.099753 
L 171.50257 135.791594 
L 171.634452 139.458349 
L 171.766334 139.319981 
L 171.898217 138.005484 
L 172.161981 140.011821 
L 172.293864 140.911214 
L 172.425746 139.112429 
L 172.689511 143.886129 
L 172.821393 142.433264 
L 173.085158 134.892201 
L 173.348922 132.263207 
L 173.612687 136.137514 
L 173.876452 141.672239 
L 174.008334 141.603055 
L 174.272099 138.489772 
L 174.799628 143.194288 
L 174.93151 141.049582 
L 175.063393 141.810607 
L 175.195275 141.603055 
L 175.45904 147.552884 
L 175.590922 146.653491 
L 175.722804 148.313909 
L 175.854687 147.068596 
L 175.986569 148.17554 
L 176.118451 147.414516 
L 176.250334 148.521461 
L 176.645981 161.043776 
L 176.777863 160.351935 
L 177.17351 147.068596 
L 177.305392 146.238387 
L 177.569157 137.590379 
L 177.701039 137.659563 
L 177.964804 139.873453 
L 178.096686 138.558956 
L 178.492333 145.338994 
L 178.756098 144.232049 
L 179.283627 136.552618 
L 179.41551 135.860778 
L 179.547392 133.646888 
L 179.679274 135.238121 
L 179.811157 138.904876 
L 179.943039 137.452011 
L 180.074921 137.590379 
L 180.206804 138.766508 
L 180.470568 139.043245 
L 180.602451 137.728747 
L 181.525627 155.439867 
L 181.657509 155.370683 
L 181.921274 157.999677 
L 182.053156 157.37702 
L 182.185039 155.924155 
L 182.316921 156.200891 
L 182.448803 158.622333 
L 182.712568 156.615996 
L 182.84445 154.609658 
L 183.108215 154.194554 
L 183.503862 151.773112 
L 183.635744 152.326584 
L 183.899509 148.729013 
L 184.031391 146.999411 
L 184.163274 147.206964 
L 184.427038 150.251062 
L 184.690803 155.647419 
L 185.08645 157.515389 
L 185.218332 157.169468 
L 186.141509 149.835958 
L 186.273391 150.04351 
L 186.405273 149.559222 
L 186.932803 153.018425 
L 187.064685 152.880057 
L 187.196568 153.018425 
L 187.32845 154.402106 
L 187.592215 152.810872 
L 187.855979 149.005749 
L 188.251626 146.376755 
L 189.04292 159.24499 
L 189.306685 157.37702 
L 189.57045 148.17554 
L 189.702332 144.232049 
L 189.834214 143.678577 
L 189.966097 145.200626 
L 190.097979 144.024497 
L 190.229861 145.684914 
L 190.493626 155.439867 
L 190.889273 146.861043 
L 191.021155 147.760436 
L 191.153038 147.068596 
L 191.28492 149.351669 
L 191.548685 156.546812 
L 191.680567 157.169468 
L 191.812449 154.81721 
L 191.944332 155.785787 
L 192.339979 149.559222 
L 192.471861 149.766774 
L 192.603743 149.282485 
L 192.735626 146.376755 
L 192.867508 146.307571 
L 192.99939 147.691252 
L 193.52692 159.452542 
L 193.658802 160.075199 
L 194.054449 153.156793 
L 194.186331 149.628406 
L 194.318214 149.490038 
L 194.450096 150.112694 
L 194.845743 154.194554 
L 195.109508 158.207229 
L 195.24139 158.691518 
L 195.505155 156.892732 
L 195.637037 156.961916 
L 195.768919 157.584573 
L 195.900802 157.37702 
L 196.032684 154.194554 
L 196.296449 156.615996 
L 196.560213 153.848633 
L 196.692096 154.263738 
L 196.823978 156.823548 
L 196.95586 156.062523 
L 197.219625 151.081271 
L 197.351507 151.150455 
L 197.48339 150.942903 
L 197.615272 150.04351 
L 197.747154 148.244725 
L 198.010919 149.974326 
L 198.274684 149.005749 
L 198.406566 146.791859 
L 198.538448 147.345332 
L 198.670331 147.068596 
L 198.802213 147.068596 
L 198.934095 147.691252 
L 199.065978 146.515123 
L 199.461625 150.112694 
L 199.593507 150.804535 
L 199.857272 149.490038 
L 199.989154 148.936565 
L 200.121036 149.905142 
L 200.252919 149.282485 
L 200.384801 149.490038 
L 200.516683 148.798197 
L 200.648566 149.074933 
L 200.91233 151.358007 
L 201.044213 151.565559 
L 201.176095 149.559222 
L 201.43986 153.225977 
L 201.703624 154.332922 
L 201.967389 160.559487 
L 202.099271 158.760702 
L 202.363036 159.798463 
L 202.494919 158.829886 
L 202.758683 152.464952 
L 202.890566 154.47129 
L 203.022448 152.60332 
L 203.15433 152.534136 
L 203.286213 151.703928 
L 203.418095 151.980664 
L 203.549977 151.219639 
L 203.68186 149.213301 
L 204.077507 150.942903 
L 204.341271 156.961916 
L 204.605036 160.974592 
L 204.736918 158.622333 
L 204.868801 159.106622 
L 205.264448 148.037172 
L 205.39633 147.691252 
L 205.528212 148.037172 
L 205.660095 147.414516 
L 205.923859 152.672504 
L 206.055742 152.534136 
L 206.319506 154.609658 
L 206.583271 152.2574 
L 206.715153 153.295161 
L 206.847036 155.785787 
L 206.978918 154.056186 
L 207.242683 155.578235 
L 207.374565 154.748026 
L 207.63833 148.106356 
L 207.770212 149.144117 
L 207.902094 147.82962 
L 208.165859 150.320246 
L 208.429624 155.785787 
L 208.561506 154.81721 
L 208.693388 155.301499 
L 208.825271 156.33926 
L 208.957153 155.024762 
L 209.3528 147.414516 
L 210.012212 139.665901 
L 210.275976 142.364079 
L 210.407859 140.565294 
L 210.539741 140.634478 
L 210.803506 142.917552 
L 210.935388 143.678577 
L 211.331035 139.458349 
L 211.462917 140.426926 
L 211.726682 145.892467 
L 211.858564 147.414516 
L 212.122329 155.924155 
L 212.254211 157.999677 
L 212.386094 158.068861 
L 212.517976 159.314174 
L 213.045505 149.282485 
L 213.30927 142.502448 
L 213.441152 142.364079 
L 213.573035 144.301233 
L 213.704917 144.439601 
L 213.836799 144.024497 
L 213.968682 142.71 
L 214.100564 142.779184 
L 214.232446 144.577969 
L 214.364329 142.917552 
L 214.628093 136.690987 
L 214.759976 139.181613 
L 214.891858 139.250797 
L 215.155623 134.823017 
L 215.419387 137.452011 
L 215.55127 139.112429 
L 215.683152 138.420588 
L 215.815034 140.357742 
L 216.078799 148.17554 
L 216.210681 148.106356 
L 216.342564 145.61573 
L 216.474446 147.82962 
L 216.606328 147.967988 
L 216.738211 148.867381 
L 216.870093 148.383093 
L 217.001975 149.905142 
L 217.133858 148.383093 
L 217.661387 131.29463 
L 217.793269 131.848102 
L 218.320799 143.194288 
L 218.584564 133.785256 
L 218.716446 133.439336 
L 218.848328 134.20036 
L 219.112093 138.904876 
L 219.375858 151.703928 
L 219.50774 151.496375 
L 219.639622 152.810872 
L 219.771505 151.427191 
L 219.903387 152.119032 
L 220.167152 148.659829 
L 220.299034 148.798197 
L 220.430916 148.590645 
L 220.562799 148.798197 
L 220.694681 148.521461 
L 220.958446 151.634743 
L 221.090328 154.332922 
L 221.22221 154.12537 
L 221.354093 155.301499 
L 221.485975 154.609658 
L 221.617857 154.748026 
L 222.013504 151.427191 
L 222.409151 137.797932 
L 222.804798 129.288292 
L 222.936681 130.810341 
L 223.068563 130.395237 
L 223.200445 132.332391 
L 223.46421 140.565294 
L 223.991739 148.659829 
L 224.123622 147.82962 
L 224.255504 146.100019 
L 224.387386 146.238387 
L 224.519269 143.886129 
L 224.783033 144.785522 
L 225.046798 143.05592 
L 225.310563 146.515123 
L 225.442445 143.816945 
L 225.574327 143.609393 
L 226.233739 137.036907 
L 226.761268 129.219108 
L 226.893151 129.149924 
L 227.025033 130.94871 
L 227.288798 129.772581 
L 227.42068 133.50852 
L 227.552562 132.955047 
L 227.684445 130.118501 
L 227.816327 130.049317 
L 227.948209 130.326053 
L 228.080092 131.778918 
L 228.211974 131.571366 
L 228.343856 133.370152 
L 228.607621 140.15019 
L 228.739503 140.288558 
L 228.871386 138.489772 
L 229.003268 139.112429 
L 229.398915 136.137514 
L 229.530797 136.137514 
L 229.66268 138.351404 
L 229.794562 137.797932 
L 229.926444 138.213036 
L 230.058327 135.72241 
L 230.190209 135.445673 
L 230.322091 137.659563 
L 230.585856 135.376489 
L 230.717738 137.313643 
L 230.981503 135.376489 
L 231.245268 132.539943 
L 231.37715 132.124839 
L 231.509032 132.124839 
L 231.640915 132.747495 
L 231.772797 132.609127 
L 232.827856 148.936565 
L 232.959738 148.383093 
L 233.355385 145.200626 
L 233.61915 145.61573 
L 234.146679 151.012087 
L 234.410444 148.313909 
L 234.674209 149.144117 
L 234.937973 147.206964 
L 235.201738 151.496375 
L 235.33362 152.119032 
L 235.465503 151.980664 
L 235.993032 147.276148 
L 236.124914 148.383093 
L 236.388679 151.91148 
L 236.652444 153.917817 
L 236.916208 144.716337 
L 237.048091 143.125104 
L 237.311855 145.892467 
L 237.443738 145.823282 
L 237.707502 149.905142 
L 237.839385 148.659829 
L 238.103149 142.917552 
L 238.235032 142.087343 
L 238.366914 142.294895 
L 238.498796 142.156527 
L 238.630679 143.125104 
L 238.762561 142.917552 
L 238.894443 146.030835 
L 239.158208 145.477362 
L 239.29009 146.169203 
L 239.421973 146.169203 
L 239.553855 148.244725 
L 239.685737 147.82962 
L 239.81762 149.420854 
L 239.949502 149.144117 
L 240.081384 150.112694 
L 240.345149 146.238387 
L 240.477031 146.584307 
L 240.608914 145.408178 
L 240.740796 146.238387 
L 240.872678 143.40184 
L 241.136443 145.961651 
L 241.268325 143.332656 
L 241.400208 145.61573 
L 241.53209 145.892467 
L 242.059619 153.710265 
L 242.191502 152.810872 
L 242.323384 153.087609 
L 242.719031 149.69759 
L 242.850913 151.150455 
L 243.114678 149.628406 
L 243.24656 149.559222 
L 243.510325 147.345332 
L 243.642207 142.71 
L 243.77409 142.294895 
L 244.037854 142.571632 
L 244.169737 143.609393 
L 244.301619 142.986736 
L 244.433501 143.194288 
L 244.565384 142.640816 
L 244.697266 141.18795 
L 244.961031 141.672239 
L 245.620442 133.370152 
L 245.752325 133.50852 
L 246.016089 136.06833 
L 246.147972 138.351404 
L 246.411736 144.301233 
L 246.543619 143.886129 
L 246.675501 144.439601 
L 246.807383 145.961651 
L 247.466795 135.445673 
L 247.598677 135.376489 
L 247.73056 136.275882 
L 247.994324 139.250797 
L 248.126207 139.043245 
L 248.389971 141.672239 
L 248.653736 138.143852 
L 248.785618 137.590379 
L 249.049383 141.326319 
L 249.181266 140.772846 
L 249.840677 132.401575 
L 250.236324 138.766508 
L 250.500089 144.647153 
L 250.631971 143.955313 
L 250.763854 139.665901 
L 250.895736 140.49611 
L 251.027618 140.219374 
L 251.291383 133.923624 
L 251.423265 134.338729 
L 251.68703 138.074668 
L 251.950795 137.313643 
L 252.214559 136.898539 
L 252.346442 137.175275 
L 252.478324 136.621803 
L 252.610206 136.552618 
L 252.742089 136.206698 
L 252.873971 137.797932 
L 253.005853 136.760171 
L 253.137736 134.823017 
L 253.269618 136.137514 
L 253.4015 135.307305 
L 253.533383 136.137514 
L 253.665265 136.137514 
L 253.797147 138.558956 
L 253.92903 138.766508 
L 254.060912 136.06833 
L 254.192794 136.06833 
L 254.588441 132.332391 
L 254.720324 133.439336 
L 255.247853 129.980133 
L 255.511618 133.024231 
L 255.907265 143.678577 
L 256.039147 143.40184 
L 256.566676 132.263207 
L 256.698559 129.219108 
L 257.094206 132.194023 
L 257.489853 141.326319 
L 257.753617 139.804269 
L 258.149264 134.961385 
L 258.413029 135.860778 
L 258.676794 137.867116 
L 259.072441 131.571366 
L 259.336205 136.345066 
L 259.59997 134.546281 
L 259.731852 135.238121 
L 260.127499 125.483169 
L 260.259382 125.552353 
L 260.786911 137.106091 
L 260.918793 136.829355 
L 261.31444 140.911214 
L 261.578205 137.452011 
L 261.84197 140.911214 
L 262.105734 138.143852 
L 262.369499 141.672239 
L 263.160793 131.848102 
L 263.292675 130.879526 
L 263.424558 131.709734 
L 263.688322 137.452011 
L 263.952087 135.514858 
L 264.083969 136.967723 
L 264.479617 132.539943 
L 264.743381 137.590379 
L 265.270911 140.426926 
L 265.402793 139.389165 
L 265.534675 139.665901 
L 265.79844 137.590379 
L 265.930322 134.892201 
L 266.062205 134.546281 
L 266.325969 135.307305 
L 266.589734 139.873453 
L 266.853499 147.068596 
L 267.381028 155.854971 
L 267.644793 157.653757 
L 267.776675 156.823548 
L 267.908557 156.961916 
L 268.04044 154.263738 
L 268.172322 153.917817 
L 268.304204 152.672504 
L 268.436087 149.766774 
L 268.567969 150.181878 
L 269.095498 142.156527 
L 269.359263 144.993074 
L 269.491145 145.546546 
L 269.886792 155.993339 
L 270.018675 155.439867 
L 270.282439 152.326584 
L 270.414322 151.565559 
L 270.546204 152.049848 
L 270.678086 151.773112 
L 270.809969 154.056186 
L 270.941851 153.641081 
L 271.205616 157.100284 
L 271.337498 157.100284 
L 271.733145 163.050113 
L 271.99691 162.635009 
L 272.128792 161.873984 
L 272.392557 156.408444 
L 272.656321 150.735351 
L 273.051968 143.125104 
L 273.315733 146.722675 
L 273.579498 144.093681 
L 273.843262 148.729013 
L 274.107027 145.408178 
L 274.370792 149.144117 
L 274.502674 149.490038 
L 274.766439 146.930227 
L 274.898321 146.445939 
L 275.030203 146.584307 
L 275.162086 147.967988 
L 275.557733 148.244725 
L 275.689615 146.376755 
L 275.95338 140.219374 
L 276.085262 139.804269 
L 276.349027 144.993074 
L 276.612791 152.119032 
L 276.876556 154.609658 
L 277.535968 148.383093 
L 277.66785 148.452277 
L 277.799732 147.622068 
L 278.327262 154.886394 
L 278.459144 154.886394 
L 278.591026 156.131707 
L 278.986673 150.112694 
L 279.38232 151.980664 
L 279.646085 155.785787 
L 279.777967 157.515389 
L 280.041732 154.402106 
L 280.173615 154.332922 
L 280.305497 154.748026 
L 280.437379 153.433529 
L 280.569262 153.710265 
L 280.833026 158.276413 
L 280.964909 158.553149 
L 281.228673 161.597248 
L 281.492438 157.37702 
L 281.756203 156.823548 
L 282.019967 152.049848 
L 282.415614 152.810872 
L 282.811261 147.345332 
L 282.943144 148.383093 
L 283.075026 148.106356 
L 283.206908 147.345332 
L 283.602555 151.91148 
L 283.734438 150.596983 
L 283.86632 150.596983 
L 284.393849 143.955313 
L 284.657614 141.533871 
L 284.789496 140.84203 
L 284.921379 141.464687 
L 285.053261 140.84203 
L 285.185143 141.326319 
L 285.712673 149.420854 
L 285.976437 151.219639 
L 286.372084 147.13778 
L 286.503967 147.13778 
L 287.031496 152.880057 
L 287.163378 153.848633 
L 287.295261 152.949241 
L 287.954672 140.011821 
L 288.086555 140.49611 
L 288.482202 137.590379 
L 288.614084 139.804269 
L 288.745966 138.351404 
L 289.405378 147.276148 
L 289.53726 147.622068 
L 289.669143 145.062258 
L 289.801025 144.92389 
L 289.932907 148.037172 
L 290.06479 145.823282 
L 290.196672 140.357742 
L 290.460437 141.118766 
L 290.592319 140.980398 
L 290.724201 138.62814 
L 290.856084 139.250797 
L 291.119848 146.584307 
L 291.383613 143.40184 
L 291.515495 143.125104 
L 291.647378 145.338994 
L 292.043025 137.036907 
L 292.174907 136.829355 
L 292.306789 135.929962 
L 292.438672 133.50852 
L 292.834319 144.439601 
L 292.966201 144.439601 
L 293.229966 152.60332 
L 293.625613 146.861043 
L 293.757495 147.691252 
L 294.153142 143.540208 
L 294.548789 148.798197 
L 294.680671 146.515123 
L 294.812554 146.238387 
L 294.944436 149.074933 
L 295.076318 148.729013 
L 295.208201 149.628406 
L 295.340083 148.729013 
L 295.471966 151.288823 
L 295.73573 149.490038 
L 295.999495 146.100019 
L 296.131377 146.238387 
L 296.26326 147.068596 
L 296.527024 149.835958 
L 297.054554 153.571897 
L 297.186436 152.395768 
L 297.318318 152.60332 
L 297.450201 151.842296 
L 297.582083 150.320246 
L 297.713965 150.596983 
L 297.97773 149.213301 
L 298.109612 148.313909 
L 298.241495 148.383093 
L 298.505259 144.854706 
L 298.769024 144.508785 
L 298.900906 142.225711 
L 299.032789 142.364079 
L 299.296553 146.653491 
L 299.6922 141.879791 
L 299.824083 142.225711 
L 300.087847 137.728747 
L 300.483494 140.426926 
L 300.747259 137.521195 
L 300.879141 137.175275 
L 301.011024 138.074668 
L 301.011024 138.074668 
" style="fill:none;stroke:#ff0000;stroke-linecap:square;stroke-opacity:0.9;stroke-width:1.5;"/>
   </g>
   <g id="patch_3">
    <path d="M 24.19 170.545197 
L 24.19 25.44 
" style="fill:none;stroke:#000000;stroke-linecap:square;stroke-linejoin:miter;stroke-width:0.8;"/>
   </g>
   <g id="patch_4">
    <path d="M 301.011024 170.545197 
L 301.011024 25.44 
" style="fill:none;stroke:#000000;stroke-linecap:square;stroke-linejoin:miter;stroke-width:0.8;"/>
   </g>
   <g id="patch_5">
    <path d="M 24.19 170.545197 
L 301.011024 170.545197 
" style="fill:none;stroke:#000000;stroke-linecap:square;stroke-linejoin:miter;stroke-width:0.8;"/>
   </g>
   <g id="patch_6">
    <path d="M 24.19 25.44 
L 301.011024 25.44 
" style="fill:none;stroke:#000000;stroke-linecap:square;stroke-linejoin:miter;stroke-width:0.8;"/>
   </g>
   <g id="text_10">
    <text style="font-family:DejaVu Sans;font-size:12px;font-style:normal;font-weight:normal;text-anchor:middle;" transform="rotate(-0, 162.600512, 19.44)" x="162.600512" y="19.44">genes</text>
   </g>
   <g id="legend_1">
    <g id="line2d_12">
     <path d="M 93.653895 36.350998 
L 110.313895 36.350998 
" style="fill:none;stroke:#008000;stroke-linecap:square;stroke-opacity:0.9;stroke-width:1.5;"/>
    </g>
    <g id="line2d_13"/>
    <g id="text_11">
     <text style="font-family:DejaVu Sans;font-size:8.33px;font-style:normal;font-weight:normal;text-anchor:start;" transform="rotate(-0, 116.977895, 39.266498)" x="116.977895" y="39.266498">SRX1070680_NT2_DRIP-seq_RNaseA.hg38</text>
    </g>
    <g id="line2d_14">
     <path d="M 93.653895 48.809555 
L 110.313895 48.809555 
" style="fill:none;stroke:#ff0000;stroke-linecap:square;stroke-opacity:0.9;stroke-width:1.5;"/>
    </g>
    <g id="line2d_15"/>
    <g id="text_12">
     <text style="font-family:DejaVu Sans;font-size:8.33px;font-style:normal;font-weight:normal;text-anchor:start;" transform="rotate(-0, 116.977895, 51.725055)" x="116.977895" y="51.725055">SRX3581339_drip_HeLa_IP_1_1.hg38</text>
    </g>
   </g>
  </g>
  <g id="text_13">
   <text style="font-family:DejaVu Sans;font-size:12px;font-style:normal;font-weight:normal;text-anchor:middle;" transform="rotate(-0, 155.905512, 13.438125)" x="155.905512" y="13.438125">SRX1070680_NT2_DRIP-seq_RNaseA.hg38.bw,SRX3581339_drip_HeLa_IP_1_1.hg38.bw,goldstd.bed,b5000,a5000,typescale_regions</text>
  </g>
 </g>
 <defs>
  <clipPath id="p260e2d82f3">
   <rect height="145.105197" width="276.821024" x="24.19" y="25.44"/>
  </clipPath>
 </defs>
</svg>
